<svg aria-hidden="true" style="width:0;height:0;position:absolute;overflow:hidden" xmlns="http://www.w3.org/2000/svg"><defs><symbol id="icon-close_modal" viewBox="0 0 32 32"><path d="M3.511 31.349c-.303 0-.588-.114-.853-.341a1.156 1.156 0 0 1-.341-.853c0-.114.019-.247.057-.398.076-.19.19-.398.341-.626l9.899-12.914L3.341 3.986A5.542 5.542 0 0 1 3 3.417a1.866 1.866 0 0 1-.057-.455c0-.341.114-.626.341-.853s.512-.341.853-.341h2.901c.417 0 .721.114.91.341.228.19.417.379.569.569l7.566 9.842 7.566-9.785a40.6 40.6 0 0 1 .512-.626c.228-.228.55-.341.967-.341h2.788c.341 0 .626.114.853.341s.341.512.341.853c0 .152-.038.303-.114.455-.038.152-.133.341-.284.569l-9.387 12.345 9.899 12.8c.152.228.247.417.284.569.076.152.114.303.114.455 0 .341-.114.626-.341.853s-.512.341-.853.341h-3.015c-.379 0-.683-.095-.91-.284s-.417-.379-.569-.569l-8.021-10.411-8.021 10.411-.569.569c-.19.19-.493.284-.91.284H3.512z"/></symbol><symbol id="icon-right_news" viewBox="0 0 19 32"><path d="m3.911 30.262 13.69-13.622a1.357 1.357 0 0 0 0-1.926L3.911 1.092C3.376.56 2.51.56 1.975 1.092s-.535 1.394 0 1.926l12.722 12.659L1.975 28.336a1.356 1.356 0 0 0 0 1.926 1.374 1.374 0 0 0 1.936 0z"/></symbol><symbol id="icon-left_news" viewBox="0 0 19 32"><path d="M14.912 1.091 1.222 14.714a1.357 1.357 0 0 0 0 1.926l13.69 13.622c.535.532 1.401.532 1.936 0s.535-1.394 0-1.926L4.126 15.677 16.848 3.018a1.356 1.356 0 0 0 0-1.926 1.374 1.374 0 0 0-1.936 0z"/></symbol><symbol id="icon-close_faq" viewBox="0 0 32 32"><path d="M22.986 23.946c-.207.207-.443.311-.707.311s-.5-.104-.707-.311L16.226 18.6l-5.233 5.233c-.207.207-.443.311-.707.311s-.49-.094-.679-.283l-1.782-1.782c-.207-.207-.311-.443-.311-.707s.104-.5.311-.707l5.233-5.233-5.176-5.176c-.207-.207-.311-.443-.311-.707s.104-.5.311-.707L9.834 6.89c.207-.207.443-.311.707-.311s.5.104.707.311l5.176 5.176 5.233-5.233c.189-.189.415-.283.679-.283s.5.104.707.311l1.782 1.782c.188.189.283.415.283.679s-.094.49-.283.679l-5.233 5.233 5.346 5.346c.207.207.311.443.311.707s-.104.5-.311.707l-1.952 1.952z"/></symbol><symbol id="icon-open_faq" viewBox="0 0 29 32"><path d="M12.818 30.24c-.391 0-.711-.125-.96-.373s-.373-.569-.373-.96v-10.08H1.618c-.391 0-.711-.124-.96-.373s-.373-.551-.373-.907v-3.36c0-.391.124-.711.373-.96s.569-.373.96-.373h9.867v-9.76c0-.391.124-.711.373-.96s.569-.373.96-.373h3.68c.391 0 .711.124.96.373s.373.569.373.96v9.76h9.867c.356 0 .658.124.907.373s.373.569.373.96v3.36c0 .356-.124.658-.373.907s-.551.373-.907.373h-9.867v10.08c0 .391-.124.711-.373.96s-.569.373-.96.373h-3.68z"/></symbol><symbol id="icon-language_header" viewBox="0 0 48 32"><path d="M.639 6.693 22.458 28.62a2.177 2.177 0 0 0 3.086 0L47.361 6.693c.852-.856.852-2.245 0-3.101s-2.233-.856-3.085 0L24.001 23.968 3.725 3.592c-.426-.428-.984-.642-1.543-.642s-1.117.214-1.543.642a2.2 2.2 0 0 0 0 3.101z"/></symbol><symbol id="icon-hamb_menu" viewBox="0 0 47 32"><path d="M0 .654h47.059V4.4H0V.654zM0 13.766h22.588v3.746H0v-3.746zM0 26.877h47.059v3.746H0v-3.746z"/></symbol></defs></svg>